<?xml version="1.0" encoding="UTF-8" standalone="no"?>
<!-- Created with Inkscape (http://www.inkscape.org/) -->

<svg
   xmlns:dc="http://purl.org/dc/elements/1.1/"
   xmlns:cc="http://creativecommons.org/ns#"
   xmlns:rdf="http://www.w3.org/1999/02/22-rdf-syntax-ns#"
   xmlns:svg="http://www.w3.org/2000/svg"
   xmlns="http://www.w3.org/2000/svg"
   version="1.1"
   width="360.00003"
   height="360"
   id="svg4757">
  <defs
     id="defs4759" />
  <metadata
     id="metadata4762">
    <rdf:RDF>
      <cc:Work
         rdf:about="">
        <dc:format>image/svg+xml</dc:format>
        <dc:type
           rdf:resource="http://purl.org/dc/dcmitype/StillImage" />
        <dc:title></dc:title>
      </cc:Work>
    </rdf:RDF>
  </metadata>
  <g
     transform="translate(-195,-352.36218)"
     id="layer1">
    <g
       transform="translate(-3495,199.99998)"
       id="g5400">
      <rect
         width="360"
         height="360"
         rx="0"
         x="3690"
         y="2340"
         transform="translate(0,-2187.6378)"
         id="rect5398"
         style="fill:#ffffff;fill-opacity:1;stroke:none" />
      <g
         transform="matrix(0.25843503,0,0,0.25843503,3705.34,134.23353)"
         id="layer1-8">
        <path
           d="m -59.357149,766.64791 0,-696.500016 696.499999,0 696.50005,0 0,696.500016 0,696.49999 -696.50005,0 -696.499999,0 0,-696.49999 z m 910.143979,414.05699 6.64398,-1.4082 3.85602,-1.9871 c 2.12081,-1.0929 5.75595,-3.6257 8.07809,-5.6284 l 4.22207,-3.6413 3.53478,-7.196 3.53478,-7.196 1.14467,-8.2199 1.14468,-8.2199 -1.1574,-7.0083 -1.15739,-7.0083 -2.06473,-5.5184 -2.06473,-5.5185 -4.8426,-5.2986 -4.8426,-5.2986 -5.3368,-2.5888 -5.3368,-2.5888 -5.29922,-1.116 c -6.74814,-1.421 -13.67781,-1.4182 -20.40156,0.01 l -5.29922,1.1244 -4.71308,2.3737 c -2.5922,1.3056 -6.3219,3.7863 -8.28823,5.5128 l -3.57514,3.139 -2.57778,4.3987 c -1.41778,2.4192 -3.42558,7.1226 -4.46177,10.4519 l -1.884,6.0533 0.0245,9.1609 0.0244,9.1609 1.01165,4.3882 c 0.55641,2.4135 2.19306,6.8855 3.637,9.9378 l 2.62535,5.5495 4.14303,4.1431 4.14303,4.143 5.44552,2.6517 5.44553,2.6518 5.5,0.9005 c 8.06405,1.3204 11.73789,1.2612 19.14398,-0.3086 z m -20.34031,-15.5976 -3.69633,-1.9521 -2.53405,-3.3223 c -3.23377,-4.2397 -5.29599,-10.1072 -6.12004,-17.4129 l -0.65107,-5.7721 1.10277,-6 1.10276,-6 2.25062,-4.3934 2.25063,-4.3933 3.54193,-2.8668 3.54193,-2.8667 5.45359,-1.1201 5.45359,-1.1202 4.49825,1.2356 4.49824,1.2357 4.64083,4.6446 4.64083,4.6446 1.61093,5.4315 1.61092,5.4315 0,7.0029 0,7.0029 -1.6209,5.7768 -1.6209,5.7769 -3.56841,4.1689 -3.5684,4.1688 -3.27857,1.3699 -3.27858,1.3699 -6.28212,-0.044 -6.28212,-0.044 -3.69633,-1.9522 z m -687.80367,-26.9594 0,-42 -8.5,0 -8.5,0 0,42 0,42 8.5,0 8.5,0 0,-42 z m 43.02824,11.25 0.0282,-30.75 15.72176,30.7319 15.72176,30.7318 10.75,0.018 10.75,0.018 0,-42 0,-42 -8.48534,0 -8.48533,0 -0.26467,30.2101 -0.26466,30.2101 -15.31152,-30.2101 -15.31151,-30.2101 -10.93849,0 -10.93848,0 0,42 0,42 8.5,0 8.5,0 0.0282,-30.75 z m 112.97176,-4.25 0,-35 12,0 12,0 0,-7 0,-7 -33.04569,0 -33.04569,0 0.29569,6.75 0.29569,6.75 11.75,0.2817 11.75,0.2818 0,34.9682 0,34.9683 9,0 9,0 0,-35 z m 94,28 0,-7 -16.5,0 -16.5,0 0,-11 0,-11 15,0 15,0 0,-7.5 0,-7.5 -15,0 -15,0 0,-9.4752 0,-9.4753 16.25,-0.2747 16.25,-0.2748 0.29569,-6.75 0.29569,-6.75 -25.54569,0 -25.54569,0 0,42 0,42 25.5,0 25.5,0 0,-7 z m 42,-10.6393 0,-17.6393 5.25,0.608 5.25,0.608 2.5,2.7813 2.5,2.7813 5.38256,14.25 5.38256,14.25 9.85285,0 9.85285,0 -1.88414,-4.75 c -10.45013,-26.3453 -14.04615,-33.9461 -16.84573,-35.6066 l -1.44421,-0.8565 4.99069,-2.8503 4.99069,-2.8503 2.61094,-5.2395 2.61094,-5.2395 0,-4.1544 0,-4.1545 -1.1381,-3.3992 c -0.62596,-1.8695 -2.17774,-4.8012 -3.44839,-6.5148 l -2.31029,-3.1156 -4.80161,-2.3607 -4.80161,-2.3607 -21.25,-0.3596 -21.25,-0.3597 0,42.086 0,42.0859 9,0 9,0 0,-17.6393 z m 0,-41.9666 0,-10.6059 7.93249,0.3603 7.9325,0.3602 2.8175,2.0963 2.81751,2.0962 0.3034,4.6154 0.3034,4.6153 -1.13389,2.1187 -1.13389,2.1187 -3.38739,1.4154 -3.38739,1.4153 -6.53212,0 -6.53212,0 0,-10.6059 z m 83.23534,29.4995 0.26466,-30.1064 15.38003,30.1064 15.38003,30.1064 10.86997,0 10.86997,0 0,-42 0,-42 -8.5,0 -8.5,0 -0.0251,30.75 -0.0251,30.75 -15.72489,-30.735 -15.72491,-30.7349 -10.75,-0.015 -10.75,-0.015 0,42 0,42 8.48534,0 8.48533,0 0.26467,-30.1064 z m 92.88301,20.8564 3.41508,-9.25 16.8779,0 16.8779,0 3.48725,9.25 3.48725,9.25 9.92715,0 9.92715,0 -0.45766,-0.75 c -0.25172,-0.4125 -7.52662,-18.75 -16.16645,-40.75 -8.63983,-22 -15.9394,-40.5776 -16.22126,-41.2837 l -0.51247,-1.2836 -10.019,0.2836 -10.019,0.2837 -12.68648,32.5 c -6.97757,17.875 -14.30654,36.6625 -16.28661,41.75 l -3.60012,9.25 9.27714,0 9.27714,0 3.41509,-9.25 z m 9.25036,-25.2684 c 0.32047,-0.8352 2.90102,-8.1477 5.73456,-16.25 2.83353,-8.1024 5.22766,-14.8273 5.32028,-14.9442 0.0926,-0.117 2.48047,6.408 5.30631,14.5 2.82585,8.0919 5.4408,15.5001 5.81101,16.4626 l 0.67311,1.75 -11.71398,0 -11.71398,0 0.58269,-1.5184 z m 97.63129,-0.4499 0,-34.9682 11.75,-0.2818 11.75,-0.2817 0.29569,-6.75 0.29569,-6.75 -33.04569,0 -33.04569,0 0,7 0,7 12,0 12,0 0,35 0,35 9,0 9,0 0,-34.9683 z m 59,-7.0317 0,-42 -9,0 -9,0 0,42 0,42 9,0 9,0 0,-42 z m 146.23534,11.8911 0.26466,-30.1089 15.42841,30.1089 15.4284,30.1089 10.8216,0 10.8216,0 0,-42 0,-42 -8.5,0 -8.5,0 -0.023,30.75 -0.023,30.75 -15.7273,-30.7386 -15.72731,-30.7385 -10.75,-0.011 -10.7494,-0.012 0,42 0,42 8.48534,0 8.48533,0 0.26467,-30.1089 z m 92.88301,20.8589 3.4151,-9.25 16.8779,0 16.8779,0 3.4873,9.25 3.4872,9.25 9.9272,0 9.9271,0 -0.4616,-0.75 c -0.2539,-0.4125 -6.985,-17.4 -14.9579,-37.75 -7.973,-20.35 -15.2717,-38.9276 -16.2194,-41.2836 l -1.7232,-4.2837 -10.0135,0.2837 -10.0134,0.2836 -12.6841,32.5 c -6.9762,17.875 -14.30674,36.6625 -16.29004,41.75 l -3.6059,9.25 9.27714,0 9.2772,0 3.415,-9.25 z m 9.2504,-25.2684 c 0.3205,-0.8352 2.901,-8.1477 5.7346,-16.25 2.8335,-8.1024 5.2219,-14.8216 5.3076,-14.9316 0.086,-0.11 2.5674,6.64 5.5151,15 2.9476,8.36 5.5683,15.7625 5.8236,16.45 l 0.4644,1.25 -11.714,0 -11.714,0 0.5827,-1.5184 z m 123.6313,27.5184 0,-7 -16,0 -16,0 0,-35 0,-35 -9,0 -9,0 0,42 0,42 25,0 25,0 0,-7 z M 654.64285,1034.6756 c 29.89508,-3.0814 50.0289,-6.6648 85.25,-15.1727 l 18.75,-4.5292 0.008,-4.1629 c 0.009,-4.6382 -7.10834,-121.03339 -7.42279,-121.38639 -0.1095,-0.1229 -5.34853,1.8079 -11.6423,4.2906 -41.30027,16.2919 -84.98516,25.4293 -121.58726,25.432 l -11.14374,9e-4 -10.35596,-1.0476 c -21.27114,-2.1518 -40.3799,-7.2837 -57.73856,-15.5066 l -9.41773,-4.4612 -8.59983,-5.7052 -8.59983,-5.7052 -9.57749,-9.2707 -9.57749,-9.2708 -5.6215,-7.8076 c -3.09183,-4.2942 -7.63434,-11.614 -10.09448,-16.2663 l -4.47298,-8.4588 -3.55209,-10.2723 -3.55208,-10.2722 -2.27595,-11.2278 -2.27594,-11.2277 0.0483,-23.5 0.0483,-23.5 2.67744,-12.6016 2.67744,-12.6015 3.1293,-8.8985 c 3.97304,-11.2976 10.49631,-24.3611 17.08072,-34.2056 l 5.14524,-7.6928 11.09663,-11.0902 11.09663,-11.0902 9.28099,-6.0645 9.28098,-6.0645 9.21902,-4.0348 c 10.69498,-4.6808 23.46239,-8.5336 36.21901,-10.9296 l 9,-1.6904 22,0.012 22,0.012 11.5,1.7619 c 31.2117,4.782 60.69683,14.7988 90.81491,30.8518 l 11.3149,6.0308 0.5788,-0.5788 c 0.43787,-0.4378 13.08272,-121.7703 13.2568,-127.2043 l 0.0346,-1.0797 -12.25067,-3.6294 c -44.01687,-13.0405 -83.9001,-20.938 -120.24934,-23.8113 l -15,-1.1857 -23,0.5969 -23,0.5969 -13.5,1.5794 c -28.03406,3.2798 -52.93693,8.7702 -76.50761,16.8678 l -13.0076,4.4688 -13.06081,5.9096 -13.0608,5.9096 -12.21891,7.2305 -12.21892,7.2305 -12.19501,9.1802 -12.19502,9.1802 -11.60399,11.604 -11.60398,11.6039 -9.09276,12.1764 -9.09276,12.1764 -6.59226,11.3524 c -15.52548,26.7362 -26.01028,56.8439 -31.47202,90.3737 l -1.99567,12.2514 -1.17753,15.2486 -1.17753,15.2485 0.58692,19.5 0.58693,19.5 1.5817,11.8858 c 0.86993,6.5372 2.72942,17.3372 4.13219,24 l 2.55049,12.1142 3.53801,11 c 9.29513,28.8995 20.86153,51.3289 38.03568,73.7583 l 7.76126,10.1361 10.5,10.5815 10.5,10.5815 8.5,6.8042 c 4.675,3.7423 13.62426,10.2085 19.88724,14.3694 l 11.38723,7.5654 14.11277,7.2616 14.11276,7.26149 14,5.511 14,5.5109 14,4.0472 c 24.51384,7.0868 50.45823,11.8216 77,14.0524 l 11,0.9246 29,-0.3701 29,-0.3701 15.5,-1.5977 z m -377,-266.02769 0,-259.5 -76,0 -76,0 0,259.5 0,259.49999 76,0 76,0 0,-259.49999 z m 665.00001,158.5 0,-101 97.50004,0 97.5,0 0,-56.5 0,-56.5 -97.5,0 -97.50004,0 0,-45.5 0,-45.5 102.00004,0 102,0 0,-56.5 0,-56.5 -178.50004,0 -178.50001,0 0,259.5 0,259.49999 76.5,0 76.50001,0 0,-100.99999 z m -303.00001,-524.4777 504.50005,-49.6671 2,-0.9508 2,-0.9508 -251.50005,0.523 c -138.325,0.2876 -368.3875,0.523 -511.25,0.5232 l -259.75,2e-4 0,50.6393 0,50.6393 4.75,-0.5447 c 2.6125,-0.2995 231.775,-22.8948 509.25,-50.2116 z"
           id="path6195"
           style="fill:#0068ac;fill-opacity:1" />
      </g>
    </g>
  </g>
</svg>
