<?xml version="1.0" encoding="UTF-8" standalone="no"?>
<!-- Created with Inkscape (http://www.inkscape.org/) -->

<svg
   xmlns:dc="http://purl.org/dc/elements/1.1/"
   xmlns:cc="http://creativecommons.org/ns#"
   xmlns:rdf="http://www.w3.org/1999/02/22-rdf-syntax-ns#"
   xmlns:svg="http://www.w3.org/2000/svg"
   xmlns="http://www.w3.org/2000/svg"
   version="1.1"
   width="294.4408"
   height="360"
   id="svg4937">
  <defs
     id="defs4939">
    <clipPath
       id="clipPath809">
      <path
         d="m 392.216,653.232 c -1.944,-0.897 -3.473,-1.981 -4.446,-3.19 l 0,0 c -0.769,-0.957 -1.19,-1.991 -1.19,-3.071 l 0,0 c 0,-4.906 8.692,-8.881 19.41,-8.881 l 0,0 c 10.3,0 18.727,3.668 19.374,8.308 l 0,0 c 0.026,0.185 0.039,0.372 0.04,0.561 l 0,0 0,0.012 c 0,1.08 -0.42,2.114 -1.191,3.071 l 0,0 c -0.972,1.209 -2.502,2.293 -4.445,3.19 l 0,0 -27.552,0 z"
         id="path811" />
    </clipPath>
    <clipPath
       id="clipPath821">
      <path
         d="m 392.216,653.232 c -1.944,-0.897 -3.473,-1.981 -4.446,-3.19 l 0,0 c -0.769,-0.957 -1.19,-1.991 -1.19,-3.071 l 0,0 c 0,-4.906 8.692,-8.881 19.41,-8.881 l 0,0 c 10.3,0 18.727,3.668 19.374,8.308 l 0,0 c 0.026,0.185 0.039,0.372 0.04,0.561 l 0,0 0,0.012 c 0,1.08 -0.42,2.114 -1.191,3.071 l 0,0 c -0.972,1.209 -2.502,2.293 -4.445,3.19 l 0,0 -27.552,0 z"
         id="path823" />
    </clipPath>
    <clipPath
       id="clipPath1045">
      <path
         d="m 479.806,496.847 c 0,-0.883 1.589,-1.6 3.549,-1.6 l 0,0 c 1.959,0 3.548,0.717 3.548,1.6 l 0,0 c 0,0.883 -1.589,1.599 -3.548,1.599 l 0,0 c -1.96,0 -3.549,-0.716 -3.549,-1.599"
         id="path1047" />
    </clipPath>
    <clipPath
       id="clipPath1057">
      <path
         d="m 479.806,496.847 c 0,-0.883 1.589,-1.6 3.549,-1.6 l 0,0 c 1.959,0 3.548,0.717 3.548,1.6 l 0,0 c 0,0.883 -1.589,1.599 -3.548,1.599 l 0,0 c -1.96,0 -3.549,-0.716 -3.549,-1.599"
         id="path1059" />
    </clipPath>
    <clipPath
       id="clipPath1093">
      <path
         d="m 488.449,496.847 c 0,-0.883 1.588,-1.6 3.548,-1.6 l 0,0 c 1.96,0 3.548,0.717 3.548,1.6 l 0,0 c 0,0.883 -1.588,1.599 -3.548,1.599 l 0,0 c -1.96,0 -3.548,-0.716 -3.548,-1.599"
         id="path1095" />
    </clipPath>
    <clipPath
       id="clipPath1105">
      <path
         d="m 488.449,496.847 c 0,-0.883 1.588,-1.6 3.548,-1.6 l 0,0 c 1.96,0 3.548,0.717 3.548,1.6 l 0,0 c 0,0.883 -1.588,1.599 -3.548,1.599 l 0,0 c -1.96,0 -3.548,-0.716 -3.548,-1.599"
         id="path1107" />
    </clipPath>
    <clipPath
       id="clipPath2011">
      <path
         d="m 280.587,662.705 c 0,-7.618 13.698,-13.791 30.594,-13.791 l 0,0 c 16.897,0 30.594,6.173 30.594,13.791 l 0,0 c 0,7.618 -13.697,13.793 -30.594,13.793 l 0,0 c -16.896,0 -30.594,-6.175 -30.594,-13.793"
         id="path2013" />
    </clipPath>
    <clipPath
       id="clipPath2023">
      <path
         d="m 280.587,662.705 c 0,-7.618 13.698,-13.791 30.594,-13.791 l 0,0 c 16.897,0 30.594,6.173 30.594,13.791 l 0,0 c 0,7.618 -13.697,13.793 -30.594,13.793 l 0,0 c -16.896,0 -30.594,-6.175 -30.594,-13.793"
         id="path2025" />
    </clipPath>
    <clipPath
       id="clipPath2393">
      <path
         d="m 272.878,582.957 c 0,-6.663 11.981,-12.065 26.762,-12.065 l 0,0 c 14.779,0 26.761,5.402 26.761,12.065 l 0,0 c 0,6.663 -11.982,12.065 -26.761,12.065 l 0,0 c -14.781,0 -26.762,-5.402 -26.762,-12.065"
         id="path2395" />
    </clipPath>
    <clipPath
       id="clipPath2405">
      <path
         d="m 272.878,582.957 c 0,-6.663 11.981,-12.065 26.762,-12.065 l 0,0 c 14.779,0 26.761,5.402 26.761,12.065 l 0,0 c 0,6.663 -11.982,12.065 -26.761,12.065 l 0,0 c -14.781,0 -26.762,-5.402 -26.762,-12.065"
         id="path2407" />
    </clipPath>
    <clipPath
       id="clipPath2689">
      <path
         d="m 379.164,527.041 c 0,-6.663 11.981,-12.065 26.761,-12.065 l 0,0 c 14.78,0 26.762,5.402 26.762,12.065 l 0,0 c 0,6.663 -11.982,12.064 -26.762,12.064 l 0,0 c -14.78,0 -26.761,-5.401 -26.761,-12.064"
         id="path2691" />
    </clipPath>
    <clipPath
       id="clipPath2701">
      <path
         d="m 379.164,527.041 c 0,-6.663 11.981,-12.065 26.761,-12.065 l 0,0 c 14.78,0 26.762,5.402 26.762,12.065 l 0,0 c 0,6.663 -11.982,12.064 -26.762,12.064 l 0,0 c -14.78,0 -26.761,-5.401 -26.761,-12.064"
         id="path2703" />
    </clipPath>
    <clipPath
       id="clipPath2923">
      <path
         d="m 482.639,583.048 c 0,-6.663 11.981,-12.065 26.762,-12.065 l 0,0 c 14.78,0 26.76,5.402 26.76,12.065 l 0,0 c 0,6.663 -11.98,12.064 -26.76,12.064 l 0,0 c -14.781,0 -26.762,-5.401 -26.762,-12.064"
         id="path2925" />
    </clipPath>
    <clipPath
       id="clipPath2935">
      <path
         d="m 482.639,583.048 c 0,-6.663 11.981,-12.065 26.762,-12.065 l 0,0 c 14.78,0 26.76,5.402 26.76,12.065 l 0,0 c 0,6.663 -11.98,12.064 -26.76,12.064 l 0,0 c -14.781,0 -26.762,-5.401 -26.762,-12.064"
         id="path2937" />
    </clipPath>
    <clipPath
       id="clipPath3195">
      <path
         d="m 389.131,552.748 c 0,-4.261 7.549,-7.716 16.86,-7.716 l 0,0 c 9.311,0 16.861,3.455 16.861,7.716 l 0,0 c 0,4.263 -7.55,7.718 -16.861,7.718 l 0,0 c -9.311,0 -16.86,-3.455 -16.86,-7.718"
         id="path3197" />
    </clipPath>
    <clipPath
       id="clipPath3207">
      <path
         d="m 389.131,552.748 c 0,-4.261 7.549,-7.716 16.86,-7.716 l 0,0 c 9.311,0 16.861,3.455 16.861,7.716 l 0,0 c 0,4.263 -7.55,7.718 -16.861,7.718 l 0,0 c -9.311,0 -16.86,-3.455 -16.86,-7.718"
         id="path3209" />
    </clipPath>
    <clipPath
       id="clipPath3353">
      <path
         d="m 348.34,558.09 c -6.24,-1.132 -10.654,-3.919 -10.654,-7.178 l 0,0 c 0,-4.259 7.548,-7.718 16.86,-7.718 l 0,0 c 9.312,0 16.859,3.459 16.859,7.718 l 0,0 c 0,3.259 -4.414,6.046 -10.654,7.178 l 0,0 -12.411,0 z"
         id="path3355" />
    </clipPath>
    <clipPath
       id="clipPath3365">
      <path
         d="m 348.34,558.09 c -6.24,-1.132 -10.654,-3.919 -10.654,-7.178 l 0,0 c 0,-4.259 7.548,-7.718 16.86,-7.718 l 0,0 c 9.312,0 16.859,3.459 16.859,7.718 l 0,0 c 0,3.259 -4.414,6.046 -10.654,7.178 l 0,0 -12.411,0 z"
         id="path3367" />
    </clipPath>
    <clipPath
       id="clipPath3611">
      <path
         d="m 337.685,570.758 c 0,-4.261 7.549,-7.716 16.861,-7.716 l 0,0 c 9.311,0 16.86,3.455 16.86,7.716 l 0,0 c 0,4.263 -7.549,7.718 -16.86,7.718 l 0,0 c -9.312,0 -16.861,-3.455 -16.861,-7.718"
         id="path3613" />
    </clipPath>
    <clipPath
       id="clipPath3623">
      <path
         d="m 337.685,570.758 c 0,-4.261 7.549,-7.716 16.861,-7.716 l 0,0 c 9.311,0 16.86,3.455 16.86,7.716 l 0,0 c 0,4.263 -7.549,7.718 -16.86,7.718 l 0,0 c -9.312,0 -16.861,-3.455 -16.861,-7.718"
         id="path3625" />
    </clipPath>
  </defs>
  <metadata
     id="metadata4942">
    <rdf:RDF>
      <cc:Work
         rdf:about="">
        <dc:format>image/svg+xml</dc:format>
        <dc:type
           rdf:resource="http://purl.org/dc/dcmitype/StillImage" />
        <dc:title></dc:title>
      </cc:Work>
    </rdf:RDF>
  </metadata>
  <g
     transform="translate(-227.77963,-352.36222)"
     id="layer1">
    <g
       transform="matrix(10.912894,0,0,-10.912894,-4058.935,7105.9265)"
       id="g11">
      <path
         d="m 418.7759,585.87248 c 0.562,0 1.017,0.455 1.017,1.018 l 0,20.449 c 0,0.562 -0.455,1.018 -1.017,1.018 l -24.946,0 c -0.562,0 -1.018,-0.456 -1.018,-1.018 l 0,-20.449 c 0,-0.563 0.456,-1.018 1.018,-1.018 l 24.946,0"
         id="path731"
         style="fill:#ffd41f;fill-opacity:1;fill-rule:evenodd;stroke:none" />
      <path
         d="m 408.9262,616.28108 c 0,0.114 -0.142,0.283 -0.255,0.341 -0.68,0.396 -1.362,-0.114 -2.042,-0.114 -0.256,0 -0.511,-0.057 -0.709,0.085 0,0.114 0.114,0.143 0.114,0.255 -0.169,0 -0.37,0.057 -0.566,0.085 -0.001,0 -0.426,0.028 -0.682,0.113 -0.936,0.396 -1.813,0.597 -2.89,0.086 -0.341,-0.142 -0.68,-0.284 -1.049,-0.284 -0.17,0 0.255,-0.34 0.199,-0.51 -0.567,-0.086 -1.077,-0.255 -1.559,-0.709 l 0,-0.028 c 0.339,-0.426 0.85,-0.482 1.36,-0.482 0.17,0 0.482,-0.397 1.275,-0.51 1.162,-0.226 1.843,0.426 2.664,0.086 -0.056,0.141 -0.056,0.226 -0.056,0.34 0.965,-0.257 1.729,-0.227 2.467,0.14 0.68,0.172 0.992,1.135 1.729,1.106"
         id="path735"
         style="fill:#cd1041;fill-opacity:1;fill-rule:nonzero;stroke:none" />
      <path
         d="m 406.4309,611.74598 c -0.097,0.131 -0.058,0.341 -0.166,0.234 -0.218,-0.218 -0.177,-0.547 -0.15,-0.831 0.012,-0.138 -0.095,-0.124 -0.138,-0.081 -0.247,0.234 -0.34,0.423 -0.453,0.735 -0.283,-0.084 -0.314,-0.294 -0.325,-0.523 -0.01,-0.195 0.155,-0.497 -0.016,-0.468 -0.311,0.055 -0.453,0.566 -0.481,0.934 -0.112,0 -0.195,-0.068 -0.322,-0.3 -0.085,-0.17 -0.132,-0.437 -0.386,-0.408 -0.255,0.028 -0.338,0.388 -0.366,0.682 -0.01,0.153 -0.166,0.002 -0.222,-0.055 -0.124,-0.124 -0.327,-0.402 -0.461,-0.627 -0.199,0.226 -0.199,0.565 -0.227,0.963 l -0.028,0.002 c -0.312,-0.143 -0.68,-1.164 -1.134,-1.164 -0.057,0 -0.076,0.057 -0.057,0.085 0.216,0.32 0.203,0.682 0.175,1.079 -0.008,0.13 -0.071,0.356 -0.162,0.266 0,0 -0.372,-0.419 -0.523,-0.55 -0.137,-0.119 -0.397,-0.341 -0.651,-0.397 0,0.226 0.453,0.765 0.198,1.614 -0.198,-0.226 -0.283,-0.41 -0.876,-0.581 -0.342,-0.085 -0.604,-0.03 -0.858,0.085 -0.02,-0.253 -0.079,-0.569 -0.306,-0.783 0,0 -0.783,0.403 -1.01,0.374 -0.199,-0.028 -0.492,-0.824 -0.635,-1.305 -0.338,-0.012 -0.762,0.313 -0.833,0.663 -0.271,-0.717 -0.251,-1.584 -0.089,-2.436 0.422,-2.226 1.173,-3.698 1.599,-6.244 0.163,-0.983 -0.906,-1.634 -1.304,-2.442 0.454,0 0.849,-0.022 1.358,-0.003 0.127,0.006 0.319,0.143 0.355,0.301 0.109,0.472 0.133,1.036 0.303,1.517 0.481,0.085 0.622,0.653 1.048,0.907 0.03,0.171 -0.226,0.199 -0.255,0.397 0.142,0.141 0.341,0.313 0.482,0.511 0.057,0.17 -0.227,0.199 -0.227,0.34 0,0.141 0.05,0.204 0.109,0.289 0.112,0.162 0.405,0.184 0.26,0.405 -0.136,0.208 -0.397,0.127 -0.539,0.298 0.085,0.284 0.341,0.623 0.596,0.736 -0.199,0.255 -0.539,0.37 -0.852,0.342 l 0,0.593 c 0,0.079 0.086,0.028 0.086,0.028 0.396,-0.198 0.681,-0.338 1.078,-0.51 -0.03,-0.34 0.084,-0.652 0.141,-0.963 0.056,-0.481 0.379,-0.788 0.313,-1.33 -0.046,-0.361 -0.423,-0.524 -0.649,-0.706 -0.095,-0.077 -0.259,-0.146 -0.259,-0.317 0.254,-0.339 0.675,-0.607 0.987,-0.89 0.235,0.287 0.345,0.75 0.543,1.061 0.199,0.055 0.369,0.084 0.511,0.169 0.113,0.057 0.227,0.057 0.339,0.114 -0.084,0.283 -0.368,0.425 -0.565,0.595 0.112,0.114 0.287,0.107 0.453,0.142 0.092,0.021 0.198,0.056 0.255,0.171 -0.199,0.058 -0.426,0.198 -0.455,0.426 0.228,0.168 0.597,0.366 0.682,0.736 -0.114,0.14 -0.312,0.14 -0.454,0.226 -0.028,0.199 0.052,0.427 0.095,0.603 0.022,0.093 0.089,0.187 0.173,0.187 0.596,-0.112 1.224,-0.08 1.79,0.003 0,0 0.246,0.051 0.203,-0.172 -0.17,-0.737 -0.419,-1.415 -0.532,-2.18 -0.255,-0.312 -0.595,-0.454 -0.851,-0.679 -0.197,-0.172 -0.453,-0.199 -0.538,-0.483 l 1.135,-0.915 c 0.204,0.241 0.396,0.66 0.538,0.944 0.055,0.113 0,0.282 0.113,0.396 0.254,-0.029 0.51,0.058 0.736,0.085 0.029,0.256 -0.197,0.369 -0.311,0.568 0.199,0.056 0.453,0.008 0.624,0.109 0.108,0.065 0.255,0.204 0.255,0.344 l -0.2,0 c -0.055,0 -0.141,0 -0.112,0.084 0.339,0.086 0.709,0.144 0.935,0.454 -0.056,0 -0.114,0.029 -0.141,0.084 0.023,0.079 0.141,0.114 0.141,0.114 0.226,0.086 0.426,0.341 0.426,0.567 -0.2,0 -0.454,0.058 -0.511,0.255 0.114,0.198 0.341,0.314 0.568,0.342 0.311,-0.71 0.736,-1.362 1.216,-1.985 0.029,-0.055 0.058,-0.142 0.029,-0.228 l -1.077,-1.303 c -0.056,-0.057 -0.056,-0.17 0.029,-0.17 l 1.531,0.056 c 0.109,0.014 0.199,0.057 0.226,0.142 0.029,0.425 0.029,0.851 0.085,1.275 0.228,0.173 0.398,0.541 0.71,0.541 -0.03,0.168 -0.198,0.197 -0.312,0.31 -0.029,0.228 0.169,0.342 0.282,0.51 -0.141,0.085 -0.339,-0.113 -0.481,-0.028 0.142,0.113 0.255,0.17 0.368,0.425 0.029,0.07 -0.028,0.056 -0.028,0.056 -0.141,-0.056 -0.265,-0.013 -0.368,0.028 -0.135,0.066 -0.256,0.171 -0.256,0.313 0.085,0.283 0.316,0.506 0.514,0.705 0.08,0.074 0.161,0.108 0.198,0.023 0.087,-0.228 0.138,-0.417 0.28,-0.616 0.029,-0.14 0.029,-0.309 0.113,-0.425 0.368,-0.226 0.709,-0.536 1.02,-0.935 0.142,-0.255 0.37,-0.453 0.313,-0.763 l -0.908,-1.362 c -0.038,-0.057 -0.022,-0.122 -0.022,-0.122 0.01,-0.043 0.062,-0.115 0.124,-0.1 l 1.429,0.335 0.071,0.035 0.016,0.049 -0.058,1.05 c 0.142,0.17 0.369,0.257 0.538,0.425 -0.056,0.087 -0.112,0.114 -0.169,0.171 0,0.171 0.169,0.226 0.283,0.31 -0.058,0.171 -0.311,0.144 -0.369,0.342 0.227,0.14 0.398,0.339 0.426,0.623 -0.084,0.058 -0.277,0.005 -0.39,0.001 -0.108,-0.003 -0.556,0.051 -0.697,0.198 -0.108,0.113 -0.132,0.367 -0.16,0.594 0,0 0.003,0.074 0.057,0.057 1.075,-0.34 2.183,-0.623 3.287,-0.823 0,0 0.148,-0.023 0.199,-0.113 0.453,-0.794 0.907,-1.516 1.394,-2.295 0.114,-0.183 0.194,-0.351 0.234,-0.508 -0.255,-0.455 -0.648,-0.746 -1.017,-1.173 -0.14,-0.19 0.042,-0.349 0.153,-0.331 l 1.361,0.226 c 0,0 0.095,0.01 0.115,0.116 0.029,0.337 0.14,0.649 0.084,0.99 0.113,0.198 0.396,0.198 0.511,0.397 -0.115,0.142 -0.237,0.26 -0.45,0.377 -0.342,0.187 -0.419,0.56 -0.492,0.794 -0.184,0.582 0.347,0.415 0.347,0.786 -0.115,0.14 -0.227,0.253 -0.369,0.365 0,0.2 0.17,0.256 0.34,0.313 -0.035,0.108 -0.113,0.186 -0.198,0.229 -0.114,0.055 -0.283,0.085 -0.398,0.167 -0.056,0.142 0.426,0.255 0.368,0.681 -0.141,-0.085 -0.368,-0.029 -0.509,0.028 -0.171,0.142 0.112,0.284 0.028,0.424 -0.34,0.115 -0.68,0.284 -0.992,0.455 -0.221,0.119 -0.323,0.469 -0.425,0.709 -0.398,0.992 -0.709,1.983 -1.417,2.833 -0.17,0.198 -0.227,0.228 -0.454,0.398 -0.073,0.056 -0.045,0.178 0.108,0.302 0.142,0.113 0.287,0.293 0.346,0.435 0.312,0.623 0.282,1.53 -0.059,2.125 -0.395,0.738 -0.962,0.992 -1.643,0.992 -1.047,0 -1.728,-0.85 -2.096,-1.729 -0.454,-1.105 -0.313,-1.652 -1.048,-2.19 -0.119,-0.076 -0.421,-0.14 -0.655,0.121 -0.112,0.141 -0.254,0.369 -0.169,0.567 0.086,-0.057 0.172,-0.209 0.278,-0.285 0.114,-0.085 0.263,-0.088 0.375,-0.027 0.153,0.085 0.229,0.254 0.229,0.424 0,0.207 -0.115,0.387 -0.257,0.512 -0.227,0.197 -0.597,0.169 -0.852,0.027 -0.339,-0.169 -0.538,-0.537 -0.481,-0.963 0.028,-0.284 0.186,-0.481 0.3,-0.764 0.031,-0.078 -0.002,-0.16 -0.13,-0.172 -0.198,-0.014 -0.347,0.05 -0.482,0.227 m -7.596,4.337 0.766,0.425 c 0.141,-0.028 0.141,-0.169 0.225,-0.256 0.2,0.058 0.114,0.342 0.228,0.484 0.113,0 0.113,-0.171 0.198,-0.256 0.198,0 0.141,0.311 0.228,0.453 0.112,0.17 0.424,0.113 0.368,0.397 l -0.284,1.276 c -0.034,0.151 -0.116,0.221 -0.171,0.198 -1.019,-0.368 -1.814,-0.737 -2.778,-1.076 -0.084,-0.029 -0.169,-0.029 -0.311,-0.029 l -1.559,1.162 c 0.085,-0.68 0.17,-1.305 0.227,-1.702 0.028,-0.084 0,-0.113 -0.057,-0.113 -0.312,0 -0.595,-0.255 -0.793,-0.538 -0.227,-0.482 -0.51,-0.879 -0.964,-1.077 0.085,-0.199 0.254,-0.312 0.425,-0.367 0.142,-0.058 0.284,-0.029 0.426,-0.114 0,-0.057 -0.029,-0.087 -0.058,-0.142 -0.368,-0.652 0.199,-1.531 -0.509,-2.013 0.312,-0.141 0.68,0 0.935,0.283 l 0.056,-0.028 c -0.197,-0.453 -0.283,-0.972 -0.255,-1.474 0,0 0.022,-0.118 -0.028,-0.265 0,0 -0.053,-0.164 -0.085,-0.245 0.91,0.149 1.252,1.314 1.321,1.514 l 0.032,0.026 0.008,-0.037 c 0,0 -0.263,-0.853 0,-1.219 0.059,-0.082 0.16,-0.164 0.26,-0.154 0.107,0.407 0.335,0.92 0.703,1.202 0.34,-0.027 0.681,-0.198 1.021,-0.339 0.199,0.481 -0.17,1.161 -0.17,1.161 l 0.003,0.014 0.025,-0.014 c 0,0 0.283,-0.31 0.426,-0.425 0.168,-0.113 0.68,-0.226 0.963,-0.056 0.1,0.059 0.255,0.197 0.283,0.311 -0.907,-0.057 -0.965,1.077 -1.389,1.616 l 0.028,0.029 c 0.228,-0.114 0.342,-0.426 0.567,-0.539 0,0 1.19,-0.246 1.239,-0.256 0.084,-0.017 0.116,0.114 0.116,0.114 0.011,0.04 0.126,0.49 0.063,0.708 -0.141,0.086 -0.198,-0.141 -0.312,-0.141 -0.312,0.085 -0.51,0.114 -0.85,0.255 l -0.567,1.134 c -0.042,0.086 0,0.113 0,0.113 m 9.969,-4.315 0.037,0.035 c 0.652,0.68 1.02,1.814 1.302,2.353 0.34,0.622 0.681,0.908 1.191,0.935 0.426,0.028 0.992,-0.34 1.163,-0.766 0.17,-0.368 0.057,-0.849 -0.142,-1.134 -0.226,-0.339 -0.651,-0.424 -1.021,-0.339 -0.226,0.058 -0.424,0.198 -0.594,0.368 -0.257,-0.397 -0.597,-0.849 -0.993,-1.104 -0.284,-0.2 -0.624,-0.397 -0.935,-0.397 l -0.008,0.049 m -10.422,5.053 c 0,-0.199 -0.142,-0.341 -0.341,-0.341 -0.171,0 -0.312,0.142 -0.312,0.341 0,0.197 0.141,0.338 0.312,0.338 0.199,0 0.341,-0.141 0.341,-0.338"
         id="path739"
         style="fill:#231f20;fill-opacity:1;fill-rule:nonzero;stroke:none" />
      <path
         d="m 396.5237,589.85718 c 0.038,2.139 1.273,3.751 3.276,3.751 1.477,0 2.394,-0.778 2.589,-2.11 0.149,-1.019 -0.031,-1.641 -1.211,-1.637 l -4.147,-0.195 c 0.09,-2.858 1.955,-3.815 4.239,-3.793 l 1.447,0 -0.01,0.656 -1.403,0 c -2.107,0.064 -3.293,0.964 -3.361,2.572 l 3.846,0.201 c 0.813,0.032 1.403,0.402 1.404,1.428 0.002,1.823 -1,3.544 -3.373,3.542 -2.169,-0.003 -4.037,-1.55 -4.037,-4.448 0,-1.629 0.53,-3.107 1.626,-3.951 l 1.264,0 c -1.387,0.614 -2.185,1.991 -2.149,3.984"
         id="path743"
         style="fill:#231f20;fill-opacity:1;fill-rule:nonzero;stroke:none" />
      <path
         d="m 405.9351,591.74148 0,-5.869 0.876,0 0,5.578 c 0.476,0.568 1.329,0.999 1.982,0.999 0.78,0 1.167,-0.29 1.17,-1.263 l 0.005,-5.314 0.842,0 0,5.423 c 0,1.172 -0.547,1.862 -1.951,1.862 -0.838,0 -1.748,-0.45 -2.924,-1.416"
         id="path747"
         style="fill:#231f20;fill-opacity:1;fill-rule:nonzero;stroke:none" />
      <path
         d="m 405.4226,591.98138 c 1.168,1.006 2.343,1.645 3.551,1.645 1.53,0 2.38,-0.759 2.35,-2.331 l 0,-5.422 0.838,0 0,5.427 c 0.047,1.748 -0.843,2.958 -3.038,2.958 -1.323,0 -2.945,-0.636 -4.54,-2.068 l 0.002,-6.317 0.837,0 0,6.108"
         id="path751"
         style="fill:#231f20;fill-opacity:1;fill-rule:nonzero;stroke:none" />
      <path
         d="m 415.0196,593.25978 0.557,0.13 0,-7.517 0.801,0 -0.009,8.132 c 0,0.238 -0.137,0.356 -0.411,0.281 l -1.741,-0.476 -0.002,-7.937 0.805,0 0,7.387"
         id="path755"
         style="fill:#231f20;fill-opacity:1;fill-rule:nonzero;stroke:none" />
      <path
         d="m 415.2963,596.14468 c 0.622,0 1.126,0.504 1.126,1.126 0,0.623 -0.504,1.127 -1.126,1.127 -0.623,0 -1.126,-0.504 -1.126,-1.127 0,-0.622 0.503,-1.126 1.126,-1.126"
         id="path759"
         style="fill:#231f20;fill-opacity:1;fill-rule:nonzero;stroke:none" />
      <path
         d="m 401.8832,591.42478 c -0.162,1.108 -0.855,1.736 -2.084,1.736 -1.512,0 -2.539,-1.2 -2.736,-3.046 l 4.003,0.193 c 0.768,0.037 0.937,0.291 0.817,1.117 m -0.717,-0.065 c -0.004,-0.229 -0.126,-0.418 -0.565,-0.44 l -2.616,-0.137 c 0.08,0.877 0.731,1.668 1.733,1.668 1.114,0 1.438,-0.643 1.448,-1.091"
         id="path763"
         style="fill:#231f20;fill-opacity:1;fill-rule:nonzero;stroke:none" />
      <g
         id="g805">
        <g
           clip-path="url(#clipPath809)"
           id="g807">
          <g
             id="g813">
            <g
               id="g815" />
          </g>
        </g>
      </g>
      <g
         id="g817">
        <g
           clip-path="url(#clipPath821)"
           id="g819">
          <g
             id="g825">
            <g
               id="g827" />
          </g>
        </g>
      </g>
      <g
         id="g1041">
        <g
           clip-path="url(#clipPath1045)"
           id="g1043">
          <g
             id="g1049">
            <g
               id="g1051" />
          </g>
        </g>
      </g>
      <g
         id="g1053">
        <g
           clip-path="url(#clipPath1057)"
           id="g1055">
          <g
             id="g1061">
            <g
               id="g1063" />
          </g>
        </g>
      </g>
      <g
         id="g1089">
        <g
           clip-path="url(#clipPath1093)"
           id="g1091">
          <g
             id="g1097">
            <g
               id="g1099" />
          </g>
        </g>
      </g>
      <g
         id="g1101">
        <g
           clip-path="url(#clipPath1105)"
           id="g1103">
          <g
             id="g1109">
            <g
               id="g1111" />
          </g>
        </g>
      </g>
      <g
         id="g2007">
        <g
           clip-path="url(#clipPath2011)"
           id="g2009">
          <g
             id="g2015">
            <g
               id="g2017" />
          </g>
        </g>
      </g>
      <g
         id="g2019">
        <g
           clip-path="url(#clipPath2023)"
           id="g2021">
          <g
             id="g2027">
            <g
               id="g2029" />
          </g>
        </g>
      </g>
      <g
         id="g2389">
        <g
           clip-path="url(#clipPath2393)"
           id="g2391">
          <g
             id="g2397">
            <g
               id="g2399" />
          </g>
        </g>
      </g>
      <g
         id="g2401">
        <g
           clip-path="url(#clipPath2405)"
           id="g2403">
          <g
             id="g2409">
            <g
               id="g2411" />
          </g>
        </g>
      </g>
      <g
         id="g2685">
        <g
           clip-path="url(#clipPath2689)"
           id="g2687">
          <g
             id="g2693">
            <g
               id="g2695" />
          </g>
        </g>
      </g>
      <g
         id="g2697">
        <g
           clip-path="url(#clipPath2701)"
           id="g2699">
          <g
             id="g2705">
            <g
               id="g2707" />
          </g>
        </g>
      </g>
      <g
         id="g2919">
        <g
           clip-path="url(#clipPath2923)"
           id="g2921">
          <g
             id="g2927">
            <g
               id="g2929" />
          </g>
        </g>
      </g>
      <g
         id="g2931">
        <g
           clip-path="url(#clipPath2935)"
           id="g2933">
          <g
             id="g2939">
            <g
               id="g2941" />
          </g>
        </g>
      </g>
      <g
         id="g3191">
        <g
           clip-path="url(#clipPath3195)"
           id="g3193">
          <g
             id="g3199">
            <g
               id="g3201" />
          </g>
        </g>
      </g>
      <g
         id="g3203">
        <g
           clip-path="url(#clipPath3207)"
           id="g3205">
          <g
             id="g3211">
            <g
               id="g3213" />
          </g>
        </g>
      </g>
      <g
         id="g3349">
        <g
           clip-path="url(#clipPath3353)"
           id="g3351">
          <g
             id="g3357">
            <g
               id="g3359" />
          </g>
        </g>
      </g>
      <g
         id="g3361">
        <g
           clip-path="url(#clipPath3365)"
           id="g3363">
          <g
             id="g3369">
            <g
               id="g3371" />
          </g>
        </g>
      </g>
      <g
         id="g3607">
        <g
           clip-path="url(#clipPath3611)"
           id="g3609">
          <g
             id="g3615">
            <g
               id="g3617" />
          </g>
        </g>
      </g>
      <g
         id="g3619">
        <g
           clip-path="url(#clipPath3623)"
           id="g3621">
          <g
             id="g3627">
            <g
               id="g3629" />
          </g>
        </g>
      </g>
    </g>
  </g>
</svg>
