<?xml version="1.0" encoding="UTF-8" standalone="no"?>
<!-- Created with Inkscape (http://www.inkscape.org/) -->

<svg
   xmlns:dc="http://purl.org/dc/elements/1.1/"
   xmlns:cc="http://creativecommons.org/ns#"
   xmlns:rdf="http://www.w3.org/1999/02/22-rdf-syntax-ns#"
   xmlns:svg="http://www.w3.org/2000/svg"
   xmlns="http://www.w3.org/2000/svg"
   version="1.1"
   width="180.58125"
   height="93.403999"
   id="svg2"
   xml:space="preserve"><metadata
     id="metadata8"><rdf:RDF><cc:Work
         rdf:about=""><dc:format>image/svg+xml</dc:format><dc:type
           rdf:resource="http://purl.org/dc/dcmitype/StillImage" /><dc:title></dc:title></cc:Work></rdf:RDF></metadata><defs
     id="defs6" /><g
     transform="matrix(1.25,0,0,-1.25,0,161.26)"
     id="g10"><path
       d="m 102.849,114.064 0,14.944 41.616,0 0,-14.944 -41.616,0 z m -77.1115,-36.1167 0,51.0607 15.7754,0 0,-51.0607 -15.7754,0 z m 25.7387,-23.6625 0,74.7232 15.7742,0 0,-74.7232 -15.7742,0 z m -51.4762,0 0,74.7232 15.7742,0 0,-74.7232 -15.7742,0 z m 102.953,0 0,51.0612 15.774,0 0,-51.0612 -15.774,0 z m -25.8432,59.7792 0,14.944 15.8785,0 0,-14.944 -15.8785,0"
       id="path14"
       style="fill:#b8b8b8;fill-opacity:1;fill-rule:nonzero;stroke:none" /><path
       d="m 77.2445,54.3594 15.7742,0 0,51.0609 -15.7742,0 0,-51.0609 z"
       id="path84"
       style="fill:#ffffff;fill-opacity:1;fill-rule:nonzero;stroke:none" /></g></svg>