<?xml version="1.0" encoding="UTF-8" standalone="no"?>
<!-- Created with Inkscape (http://www.inkscape.org/) -->

<svg
   xmlns:dc="http://purl.org/dc/elements/1.1/"
   xmlns:cc="http://creativecommons.org/ns#"
   xmlns:rdf="http://www.w3.org/1999/02/22-rdf-syntax-ns#"
   xmlns:svg="http://www.w3.org/2000/svg"
   xmlns="http://www.w3.org/2000/svg"
   version="1.1"
   width="388.8504"
   height="360"
   id="svg4703">
  <defs
     id="defs4705" />
  <metadata
     id="metadata4708">
    <rdf:RDF>
      <cc:Work
         rdf:about="">
        <dc:format>image/svg+xml</dc:format>
        <dc:type
           rdf:resource="http://purl.org/dc/dcmitype/StillImage" />
        <dc:title></dc:title>
      </cc:Work>
    </rdf:RDF>
  </metadata>
  <g
     transform="translate(-348.43194,-278.07647)"
     id="layer1">
    <g
       transform="matrix(2.9898566,0,0,2.9898566,294.40754,-428.77592)"
       id="layer1-2">
      <g
         transform="matrix(0.2326949,0,0,0.2326949,0.4836773,190.36074)"
         id="g2384"
         style="display:inline">
        <path
           d="m 355.02537,715.37104 c -19.98944,0 -30.26349,-13.03571 -30.26349,-13.03571 -16.42857,-0.71429 -144.82143,-0.35715 -144.82143,-0.35715 l -12.5,-105.50885 c 0,0 -79.080325,-55.74115 -85.508896,-62.16972 C 43.972263,362.09404 181.17751,197.92475 355.03065,197.92475 c 173.85314,0 311.05839,164.16929 273.0991,336.37486 -6.42858,6.42857 -85.5089,62.16972 -85.5089,62.16972 l -12.5,105.50885 c 0,0 -128.39286,-0.35714 -144.82143,0.35715 0,0 -10.27405,13.03571 -30.27405,13.03571 z"
           id="Red part"
           style="fill:#ed1c24;fill-opacity:1;fill-rule:evenodd;stroke:none" />
        <path
           d="M 355.2112,554.91135 343.07983,250.34962 c -14.63091,-2.9859 -51.95465,0.59719 -71.96017,15.52668 l 58.22504,290.22941 c 0,0 -79.42493,-278.28581 -79.42493,-278.28581 -19.04017,-0.23339 -57.46126,31.96025 -60.31516,41.504 L 305.4575,566.25777 c 0,0 -130.18521,-225.73399 -130.18521,-225.73399 -12.83937,4.77744 -40.90682,56.4335 -36.42797,62.43558 0,0 145.11471,177.63073 145.11471,177.63073 L 134.66406,428.9064 c 0,0 -19.40835,29.56041 -6.75158,79.63049 l 84.32869,60.89857 10.55745,83.19979 103.39021,0 c 0,0 16.91497,16.0333 28.91677,16.0333 12.0018,0 28.91677,-16.0333 28.91677,-16.0333 l 103.39021,0 10.55745,-83.19979 84.32869,-60.89857 c 12.65677,-50.07008 -6.75158,-79.63049 -6.75158,-79.63049 L 426.25217,580.59009 c 0,0 145.11471,-177.63073 145.11471,-177.63073 4.47885,-6.00208 -23.5886,-57.65814 -36.42797,-62.43558 0,0 -130.18521,225.73399 -130.18521,225.73399 L 520.60659,319.3239 c -2.8539,-9.54375 -41.27499,-41.73739 -60.31516,-41.504 0,0 -79.42493,278.28581 -79.42493,278.28581 L 439.09154,265.8763 C 419.08602,250.94681 381.76228,247.36372 367.13137,250.34962 L 355.2112,554.91135 z"
           id="Yellow part"
           style="fill:#ffd500;fill-opacity:1;fill-rule:evenodd;stroke:none" />
      </g>
    </g>
  </g>
</svg>
